BioRhyme-Bold.ufo
<glyph name="exclam" format="1">
  <advance width="287"/>
  <unicode hex="0021"/>
  <outline>
    <contour>
      <point x="167" y="149" type="line"/>
      <point x="178" y="260" type="line" smooth="yes"/>
      <point x="189" y="367"/>
      <point x="225" y="447"/>
      <point x="225" y="493" type="curve"/>
      <point x="225" y="533"/>
      <point x="203" y="572"/>
      <point x="143" y="572" type="curve"/>
      <point x="83" y="572"/>
      <point x="62" y="533"/>
      <point x="62" y="493" type="curve"/>
      <point x="62" y="447"/>
      <point x="91" y="365"/>
      <point x="110" y="260" type="curve" smooth="yes"/>
      <point x="121" y="149" type="line"/>
    </contour>
    <contour>
      <point x="99" y="121"/>
      <point x="63" y="94"/>
      <point x="63" y="54" type="curve"/>
      <point x="63" y="17"/>
      <point x="99" y="-10"/>
      <point x="143" y="-10" type="curve"/>
      <point x="190" y="-10"/>
      <point x="223" y="17"/>
      <point x="223" y="54" type="curve"/>
      <point x="223" y="94"/>
      <point x="190" y="121"/>
      <point x="143" y="121" type="curve"/>
    </contour>
  </outline>
</glyph>
<glyph name="numbersign" format="1">
  <advance width="616"/>
  <unicode hex="0023"/>
  <outline>
    <contour>
      <point x="547" y="490" type="line"/>
      <point x="449" y="490" type="line"/>
      <point x="271" y="0" type="line"/>
      <point x="368" y="0" type="line"/>
    </contour>
    <contour>
      <point x="343" y="490" type="line"/>
      <point x="245" y="490" type="line"/>
      <point x="67" y="0" type="line"/>
      <point x="164" y="0" type="line"/>
    </contour>
    <contour>
      <point x="54" y="287" type="line"/>
      <point x="612" y="287" type="line"/>
      <point x="612" y="373" type="line"/>
      <point x="54" y="373" type="line"/>
    </contour>
    <contour>
      <point x="5" y="109" type="line"/>
      <point x="563" y="109" type="line"/>
      <point x="563" y="196" type="line"/>
      <point x="5" y="196" type="line"/>
    </contour>
  </outline>
</glyph>
<glyph name="dollar" format="1">
  <advance width="562"/>
  <unicode hex="0024"/>
  <outline>
    <contour>
      <point x="452" y="-12"/>
      <point x="524" y="38"/>
      <point x="524" y="124" type="curve" smooth="yes"/>
      <point x="524" y="216"/>
      <point x="440" y="259"/>
      <point x="325" y="284" type="curve" smooth="yes"/>
      <point x="216" y="308"/>
      <point x="183" y="322"/>
      <point x="183" y="351" type="curve" smooth="yes"/>
      <point x="183" y="378"/>
      <point x="207" y="394"/>
      <point x="257" y="394" type="curve" smooth="yes"/>
      <point x="324" y="394"/>
      <point x="403" y="348"/>
      <point x="433" y="301" type="curve"/>
      <point x="499" y="304" type="line"/>
      <point x="499" y="472" type="line"/>
      <point x="399" y="472" type="line"/>
      <point x="399" y="367" type="line"/>
      <point x="452" y="362" type="line"/>
      <point x="404" y="431"/>
      <point x="320" y="481"/>
      <point x="229" y="481" type="curve" smooth="yes"/>
      <point x="137" y="481"/>
      <point x="66" y="425"/>
      <point x="66" y="341" type="curve" smooth="yes"/>
      <point x="66" y="267"/>
      <point x="113" y="213"/>
      <point x="222" y="186" type="curve" smooth="yes"/>
      <point x="355" y="154"/>
      <point x="407" y="135"/>
      <point x="407" y="107" type="curve" smooth="yes"/>
      <point x="407" y="80"/>
      <point x="377" y="73"/>
      <point x="337" y="73" type="curve" smooth="yes"/>
      <point x="263" y="73"/>
      <point x="185" y="114"/>
      <point x="135" y="174" type="curve"/>
      <point x="65" y="170" type="line"/>
      <point x="65" y="-2" type="line"/>
      <point x="166" y="-2" type="line"/>
      <point x="166" y="101" type="line"/>
      <point x="105" y="108" type="line"/>
      <point x="170" y="42"/>
      <point x="240" y="-12"/>
      <point x="348" y="-12" type="curve" smooth="yes"/>
    </contour>
    <contour>
      <point x="338" y="-111" type="line"/>
      <point x="338" y="54" type="line"/>
      <point x="332" y="67" type="line"/>
      <point x="332" y="417" type="line"/>
      <point x="338" y="431" type="line"/>
      <point x="338" y="575" type="line"/>
      <point x="250" y="575" type="line"/>
      <point x="250" y="430" type="line"/>
      <point x="256" y="416" type="line"/>
      <point x="256" y="67" type="line"/>
      <point x="250" y="52" type="line"/>
      <point x="250" y="-111" type="line"/>
    </contour>
  </outline>
</glyph>
<glyph name="parenleft" format="1">
  <advance width="310"/>
  <unicode hex="0028"/>
  <outline>
    <contour>
      <point x="320" y="-92" type="line"/>
      <point x="276" y="-54"/>
      <point x="166" y="68"/>
      <point x="166" y="255" type="curve" smooth="yes"/>
      <point x="166" y="442"/>
      <point x="264" y="551"/>
      <point x="320" y="600" type="curve"/>
      <point x="294" y="640" type="line"/>
      <point x="183" y="583"/>
      <point x="55" y="463"/>
      <point x="55" y="255" type="curve" smooth="yes"/>
      <point x="55" y="47"/>
      <point x="196" y="-85"/>
      <point x="294" y="-130" type="curve"/>
    </contour>
  </outline>
</glyph>
<glyph name="slash" format="1">
  <advance width="434"/>
  <unicode hex="002F"/>
  <outline>
    <contour>
      <point x="411" y="561" type="line"/>
      <point x="309" y="561" type="line"/>
      <point x="15" y="-79" type="line"/>
      <point x="117" y="-79" type="line"/>
    </contour>
  </outline>
</glyph>
<glyph name="four" format="1">
  <advance width="501"/>
  <unicode hex="0034"/>
  <outline>
    <contour>
      <point x="401" y="480" type="line"/>
      <point x="287" y="480" type="line"/>
      <point x="14" y="187" type="line"/>
      <point x="96" y="146" type="line"/>
    </contour>
    <contour>
      <point x="491" y="91" type="line"/>
      <point x="491" y="187" type="line"/>
      <point x="14" y="187" type="line"/>
      <point x="14" y="91" type="line"/>
    </contour>
    <contour>
      <point x="287" y="-10" type="line"/>
      <point x="402" y="-10" type="line"/>
      <point x="402" y="480" type="line"/>
      <point x="287" y="480" type="line"/>
    </contour>
  </outline>
</glyph>
<glyph name="A" format="1">
  <advance width="611"/>
  <unicode hex="0041"/>
  <outline>
    <contour>
      <point x="144" y="13" type="line"/>
      <point x="319" y="473" type="line"/>
      <point x="279" y="473" type="line"/>
      <point x="453" y="13" type="line"/>
      <point x="583" y="13" type="line"/>
      <point x="388" y="471" type="line" smooth="yes"/>
      <point x="220" y="471" type="line"/>
      <point x="27" y="13" type="line"/>
    </contour>
    <contour>
      <point x="260" y="0" type="line"/>
      <point x="260" y="96" type="line"/>
      <point x="0" y="96" type="line"/>
      <point x="0" y="0" type="line"/>
    </contour>
    <contour>
      <point x="431" y="172" type="line"/>
      <point x="414" y="257" type="line"/>
      <point x="188" y="257" type="line"/>
      <point x="170" y="172" type="line"/>
    </contour>
    <contour>
      <point x="611" y="0" type="line"/>
      <point x="611" y="96" type="line"/>
      <point x="346" y="96" type="line"/>
      <point x="346" y="0" type="line"/>
    </contour>
    <contour>
      <point x="461" y="424" type="line"/>
      <point x="461" y="520" type="line"/>
      <point x="147" y="520" type="line"/>
      <point x="147" y="424" type="line"/>
    </contour>
    <contour>
      <point x="373" y="638" type="move" name="hook"/>
    </contour>
    <contour>
      <point x="621" y="9" type="move" name="ogonek"/>
    </contour>
    <contour>
      <point x="302" y="520" type="move" name="top"/>
    </contour>
    <contour>
      <point x="304" y="0" type="move" name="bottom"/>
    </contour>
  </outline>
</glyph>
<glyph name="G" format="1">
  <advance width="602"/>
  <unicode hex="0047"/>
  <outline>
    <contour>
      <point x="467" y="-11"/>
      <point x="577" y="105"/>
      <point x="577" y="252" type="curve" smooth="yes"/>
      <point x="577" y="282" type="line"/>
      <point x="272" y="282" type="line"/>
      <point x="272" y="186" type="line"/>
      <point x="451" y="186" type="line"/>
      <point x="443" y="135"/>
      <point x="391" y="85"/>
      <point x="310" y="85" type="curve" smooth="yes"/>
      <point x="222" y="85"/>
      <point x="153" y="162"/>
      <point x="153" y="260" type="curve" smooth="yes"/>
      <point x="153" y="358"/>
      <point x="225" y="435"/>
      <point x="316" y="435" type="curve" smooth="yes"/>
      <point x="395" y="435"/>
      <point x="451" y="386"/>
      <point x="478" y="342" type="curve"/>
      <point x="558" y="347" type="line"/>
      <point x="558" y="520" type="line"/>
      <point x="448" y="520" type="line"/>
      <point x="448" y="424" type="line"/>
      <point x="504" y="407" type="line"/>
      <point x="463" y="481"/>
      <point x="387" y="530"/>
      <point x="284" y="530" type="curve" smooth="yes"/>
      <point x="139" y="530"/>
      <point x="25" y="411"/>
      <point x="25" y="260" type="curve" smooth="yes"/>
      <point x="25" y="108"/>
      <point x="148" y="-11"/>
      <point x="305" y="-11" type="curve" smooth="yes"/>
    </contour>
    <contour>
      <point x="311" y="530" type="move" name="top"/>
    </contour>
    <contour>
      <point x="311" y="-10" type="move" name="bottom"/>
    </contour>
  </outline>
</glyph>
<glyph name="I" format="1">
  <advance width="343"/>
  <unicode hex="0049"/>
  <outline>
    <contour>
      <point x="233" y="57" type="line"/>
      <point x="233" y="464" type="line"/>
      <point x="110" y="464" type="line"/>
      <point x="110" y="57" type="line"/>
    </contour>
    <contour>
      <point x="318" y="0" type="line"/>
      <point x="318" y="96" type="line"/>
      <point x="25" y="96" type="line"/>
      <point x="25" y="0" type="line"/>
    </contour>
    <contour>
      <point x="318" y="424" type="line"/>
      <point x="318" y="520" type="line"/>
      <point x="25" y="520" type="line"/>
      <point x="25" y="424" type="line"/>
    </contour>
    <contour>
      <point x="318" y="0" type="move" name="ogonek"/>
    </contour>
    <contour>
      <point x="173" y="0" type="move" name="bottom"/>
    </contour>
    <contour>
      <point x="173" y="520" type="move" name="top"/>
    </contour>
  </outline>
</glyph>
<glyph name="J" format="1">
  <advance width="427"/>
  <unicode hex="004A"/>
  <outline>
    <contour>
      <point x="256" y="-10"/>
      <point x="338" y="54"/>
      <point x="338" y="169" type="curve" smooth="yes"/>
      <point x="338" y="468" type="line"/>
      <point x="217" y="468" type="line"/>
      <point x="218" y="177" type="line" smooth="yes"/>
      <point x="218" y="115"/>
      <point x="189" y="94"/>
      <point x="148" y="91" type="curve" smooth="yes"/>
      <point x="114" y="90"/>
      <point x="77" y="110"/>
      <point x="52" y="128" type="curve"/>
      <point x="2" y="43" type="line"/>
      <point x="32" y="14"/>
      <point x="89" y="-10"/>
      <point x="154" y="-10" type="curve" smooth="yes"/>
    </contour>
    <contour>
      <point x="422" y="424" type="line"/>
      <point x="422" y="520" type="line"/>
      <point x="88" y="520" type="line"/>
      <point x="88" y="424" type="line"/>
    </contour>
    <contour>
      <point x="297" y="520" type="move" name="top"/>
    </contour>
    <contour>
      <point x="150" y="-12" type="move" name="bottom"/>
    </contour>
  </outline>
</glyph>
<glyph name="Q" format="1">
  <advance width="614"/>
  <unicode hex="0051"/>
  <outline>
    <contour>
      <point x="595" y="19" type="line"/>
      <point x="582" y="16"/>
      <point x="568" y="14"/>
      <point x="549" y="14" type="curve"/>
      <point x="506" y="14"/>
      <point x="462" y="35"/>
      <point x="420" y="124" type="curve" smooth="yes"/>
      <point x="395" y="177" type="line" smooth="yes"/>
      <point x="344" y="285"/>
      <point x="270" y="305"/>
      <point x="192" y="305" type="curve" smooth="yes"/>
      <point x="135" y="305" type="line"/>
      <point x="135" y="218" type="line"/>
      <point x="192" y="218" type="line" smooth="yes"/>
      <point x="245" y="218"/>
      <point x="272" y="196"/>
      <point x="298" y="138" type="curve" smooth="yes"/>
      <point x="321" y="87" type="line" smooth="yes"/>
      <point x="377" y="-37"/>
      <point x="455" y="-83"/>
      <point x="532" y="-83" type="curve" smooth="yes"/>
      <point x="565" y="-83"/>
      <point x="592" y="-77"/>
      <point x="609" y="-71" type="curve"/>
    </contour>
    <contour>
      <point x="472" y="-10"/>
      <point x="592" y="110"/>
      <point x="592" y="260" type="curve" smooth="yes"/>
      <point x="592" y="410"/>
      <point x="472" y="530"/>
      <point x="309" y="530" type="curve" smooth="yes"/>
      <point x="145" y="530"/>
      <point x="25" y="410"/>
      <point x="25" y="260" type="curve" smooth="yes"/>
      <point x="25" y="110"/>
      <point x="145" y="-10"/>
      <point x="309" y="-10" type="curve" smooth="yes"/>
    </contour>
    <contour>
      <point x="207" y="84"/>
      <point x="149" y="164"/>
      <point x="149" y="260" type="curve" smooth="yes"/>
      <point x="149" y="354"/>
      <point x="207" y="436"/>
      <point x="308" y="436" type="curve" smooth="yes"/>
      <point x="410" y="436"/>
      <point x="468" y="356"/>
      <point x="468" y="260" type="curve" smooth="yes"/>
      <point x="468" y="166"/>
      <point x="410" y="84"/>
      <point x="308" y="84" type="curve" smooth="yes"/>
    </contour>
  </outline>
</glyph>
<glyph name="R" format="1">
  <advance width="604"/>
  <unicode hex="0052"/>
  <outline>
    <contour>
      <point x="347" y="207" type="line" smooth="yes"/>
      <point x="468" y="207"/>
      <point x="544" y="262"/>
      <point x="544" y="364" type="curve" smooth="yes"/>
      <point x="544" y="466"/>
      <point x="458" y="520"/>
      <point x="337" y="520" type="curve" smooth="yes"/>
      <point x="25" y="520" type="line"/>
      <point x="25" y="424" type="line"/>
      <point x="340" y="424" type="line" smooth="yes"/>
      <point x="377" y="424"/>
      <point x="422" y="412"/>
      <point x="422" y="364" type="curve" smooth="yes"/>
      <point x="422" y="312"/>
      <point x="374" y="297"/>
      <point x="340" y="297" type="curve" smooth="yes"/>
      <point x="190" y="297" type="line"/>
      <point x="190" y="207" type="line"/>
    </contour>
    <contour>
      <point x="313" y="0" type="line"/>
      <point x="313" y="96" type="line"/>
      <point x="25" y="97" type="line"/>
      <point x="25" y="0" type="line"/>
    </contour>
    <contour>
      <point x="233" y="53" type="line"/>
      <point x="233" y="464" type="line"/>
      <point x="110" y="464" type="line"/>
      <point x="110" y="53" type="line"/>
    </contour>
    <contour>
      <point x="568" y="-11"/>
      <point x="602" y="19"/>
      <point x="624" y="44" type="curve"/>
      <point x="568" y="123" type="line"/>
      <point x="555" y="112"/>
      <point x="540" y="102"/>
      <point x="516" y="102" type="curve" smooth="yes"/>
      <point x="484" y="102"/>
      <point x="450" y="121"/>
      <point x="424" y="203" type="curve" smooth="yes"/>
      <point x="419" y="219" type="line"/>
      <point x="310" y="219" type="line"/>
      <point x="315" y="197" type="line" smooth="yes"/>
      <point x="348" y="52"/>
      <point x="413" y="-11"/>
      <point x="508" y="-11" type="curve" smooth="yes"/>
    </contour>
    <contour>
      <point x="320" y="520" type="move" name="top"/>
    </contour>
    <contour>
      <point x="360" y="0" type="move" name="bottom"/>
    </contour>
  </outline>
</glyph>
<glyph name="Y" format="1">
  <advance width="603"/>
  <unicode hex="0059"/>
  <outline>
    <contour>
      <point x="332" y="174" type="line"/>
      <point x="550" y="449" type="line"/>
      <point x="415" y="449" type="line"/>
      <point x="309" y="290" type="line"/>
      <point x="192" y="450" type="line"/>
      <point x="47" y="450" type="line"/>
      <point x="270" y="174" type="line"/>
    </contour>
    <contour>
      <point x="450" y="0" type="line"/>
      <point x="450" y="96" type="line"/>
      <point x="154" y="96" type="line"/>
      <point x="154" y="0" type="line"/>
    </contour>
    <contour>
      <point x="363" y="50" type="line"/>
      <point x="363" y="250" type="line"/>
      <point x="241" y="250" type="line"/>
      <point x="241" y="50" type="line"/>
    </contour>
    <contour>
      <point x="259" y="424" type="line"/>
      <point x="259" y="520" type="line"/>
      <point x="10" y="520" type="line"/>
      <point x="10" y="424" type="line"/>
    </contour>
    <contour>
      <point x="593" y="424" type="line"/>
      <point x="593" y="520" type="line"/>
      <point x="344" y="520" type="line"/>
      <point x="344" y="424" type="line"/>
    </contour>
    <contour>
      <point x="302" y="510" type="move" name="top"/>
    </contour>
    <contour>
      <point x="303" y="0" type="move" name="bottom"/>
    </contour>
  </outline>
</glyph>
<glyph name="a" format="1">
  <advance width="467"/>
  <unicode hex="0061"/>
  <outline>
    <contour>
      <point x="421" y="-6"/>
      <point x="448" y="3"/>
      <point x="462" y="11" type="curve"/>
      <point x="439" y="92" type="line"/>
      <point x="435" y="90"/>
      <point x="429" y="88"/>
      <point x="421" y="88" type="curve" smooth="yes"/>
      <point x="411" y="88"/>
      <point x="402" y="94"/>
      <point x="402" y="111" type="curve" smooth="yes"/>
      <point x="402" y="218" type="line" smooth="yes"/>
      <point x="402" y="305"/>
      <point x="345" y="366"/>
      <point x="227" y="366" type="curve" smooth="yes"/>
      <point x="161" y="366"/>
      <point x="113" y="351"/>
      <point x="45" y="322" type="curve"/>
      <point x="70" y="235" type="line"/>
      <point x="124" y="257"/>
      <point x="168" y="270"/>
      <point x="210" y="270" type="curve" smooth="yes"/>
      <point x="255" y="270"/>
      <point x="293" y="255"/>
      <point x="293" y="223" type="curve" smooth="yes"/>
      <point x="293" y="100" type="line" smooth="yes"/>
      <point x="293" y="31"/>
      <point x="337" y="-6"/>
      <point x="388" y="-6" type="curve" smooth="yes"/>
    </contour>
    <contour>
      <point x="222" y="-11"/>
      <point x="278" y="22"/>
      <point x="330" y="82" type="curve"/>
      <point x="332" y="156" type="line"/>
      <point x="275" y="101"/>
      <point x="221" y="83"/>
      <point x="196" y="83" type="curve" smooth="yes"/>
      <point x="173" y="83"/>
      <point x="153" y="91"/>
      <point x="153" y="110" type="curve" smooth="yes"/>
      <point x="153" y="133"/>
      <point x="186" y="143"/>
      <point x="217" y="144" type="curve" smooth="yes"/>
      <point x="244" y="144"/>
      <point x="279" y="142"/>
      <point x="332" y="115" type="curve"/>
      <point x="332" y="185" type="line"/>
      <point x="288" y="208"/>
      <point x="247" y="225"/>
      <point x="185" y="225" type="curve" smooth="yes"/>
      <point x="113" y="225"/>
      <point x="26" y="186"/>
      <point x="25" y="105" type="curve" smooth="yes"/>
      <point x="24" y="25"/>
      <point x="90" y="-11"/>
      <point x="160" y="-11" type="curve" smooth="yes"/>
    </contour>
    <contour>
      <point x="462" y="11" type="move" name="ogonek"/>
    </contour>
    <contour>
      <point x="160" y="-10" type="move" name="bottom"/>
    </contour>
    <contour>
      <point x="227" y="367" type="move" name="top"/>
    </contour>
  </outline>
</glyph>
<glyph name="c" format="1">
  <advance width="402"/>
  <unicode hex="0063"/>
  <outline>
    <contour>
      <point x="281" y="-9"/>
      <point x="342" y="14"/>
      <point x="387" y="60" type="curve"/>
      <point x="333" y="138" type="line"/>
      <point x="297" y="108"/>
      <point x="268" y="90"/>
      <point x="224" y="90" type="curve" smooth="yes"/>
      <point x="178" y="90"/>
      <point x="140" y="125"/>
      <point x="140" y="179" type="curve" smooth="yes"/>
      <point x="140" y="238"/>
      <point x="183" y="271"/>
      <point x="228" y="271" type="curve" smooth="yes"/>
      <point x="270" y="271"/>
      <point x="293" y="250"/>
      <point x="317" y="224" type="curve"/>
      <point x="373" y="227" type="line"/>
      <point x="373" y="357" type="line"/>
      <point x="294" y="357" type="line"/>
      <point x="294" y="288" type="line"/>
      <point x="335" y="284" type="line"/>
      <point x="303" y="329"/>
      <point x="271" y="367"/>
      <point x="198" y="367" type="curve" smooth="yes"/>
      <point x="116" y="367"/>
      <point x="20" y="292"/>
      <point x="20" y="179" type="curve" smooth="yes"/>
      <point x="20" y="69"/>
      <point x="111" y="-14"/>
      <point x="224" y="-11" type="curve" smooth="yes"/>
    </contour>
    <contour>
      <point x="198" y="367" type="move" name="top"/>
    </contour>
    <contour>
      <point x="224" y="-11" type="move" name="bottom"/>
    </contour>
  </outline>
</glyph>
<glyph name="d" format="1">
  <advance width="498"/>
  <unicode hex="0064"/>
  <outline>
    <contour>
      <point x="292" y="-11"/>
      <point x="345" y="58"/>
      <point x="383" y="98" type="curve"/>
      <point x="383" y="181" type="line"/>
      <point x="341" y="139"/>
      <point x="286" y="87"/>
      <point x="232" y="86" type="curve" smooth="yes"/>
      <point x="173" y="85"/>
      <point x="140" y="125"/>
      <point x="140" y="177" type="curve" smooth="yes"/>
      <point x="140" y="232"/>
      <point x="178" y="272"/>
      <point x="241" y="272" type="curve" smooth="yes"/>
      <point x="294" y="272"/>
      <point x="349" y="225"/>
      <point x="381" y="182" type="curve"/>
      <point x="381" y="259" type="line"/>
      <point x="350" y="301"/>
      <point x="302" y="367"/>
      <point x="211" y="367" type="curve" smooth="yes"/>
      <point x="100" y="367"/>
      <point x="20" y="285"/>
      <point x="20" y="177" type="curve" smooth="yes"/>
      <point x="20" y="69"/>
      <point x="104" y="-11"/>
      <point x="198" y="-11" type="curve" smooth="yes"/>
    </contour>
    <contour>
      <point x="452" y="-6"/>
      <point x="479" y="3"/>
      <point x="493" y="11" type="curve"/>
      <point x="470" y="92" type="line"/>
      <point x="466" y="90"/>
      <point x="460" y="88"/>
      <point x="452" y="88" type="curve" smooth="yes"/>
      <point x="442" y="88"/>
      <point x="433" y="94"/>
      <point x="433" y="111" type="curve" smooth="yes"/>
      <point x="433" y="520" type="line"/>
      <point x="317" y="520" type="line"/>
      <point x="317" y="100" type="line" smooth="yes"/>
      <point x="317" y="31"/>
      <point x="361" y="-6"/>
      <point x="422" y="-6" type="curve" smooth="yes"/>
    </contour>
    <contour>
      <point x="421" y="430" type="line"/>
      <point x="421" y="520" type="line"/>
      <point x="246" y="520" type="line"/>
      <point x="246" y="430" type="line"/>
    </contour>
    <contour>
      <point x="198" y="-8" type="move" name="bottom"/>
    </contour>
    <contour>
      <point x="198" y="365" type="move" name="top"/>
    </contour>
    <contour>
      <point x="507" y="357" type="move" name="topright"/>
    </contour>
    <contour>
      <point x="198" y="179" type="move" name="center"/>
    </contour>
  </outline>
</glyph>
<glyph name="e" format="1">
  <advance width="431"/>
  <unicode hex="0065"/>
  <outline>
    <contour>
      <point x="306" y="-11"/>
      <point x="368" y="17"/>
      <point x="413" y="56" type="curve"/>
      <point x="367" y="135" type="line"/>
      <point x="333" y="109"/>
      <point x="288" y="90"/>
      <point x="234" y="90" type="curve" smooth="yes"/>
      <point x="177" y="90"/>
      <point x="129" y="117"/>
      <point x="129" y="177" type="curve" smooth="yes"/>
      <point x="129" y="234"/>
      <point x="185" y="278"/>
      <point x="241" y="278" type="curve" smooth="yes"/>
      <point x="268" y="278"/>
      <point x="286" y="266"/>
      <point x="286" y="250" type="curve" smooth="yes"/>
      <point x="286" y="229"/>
      <point x="263" y="217"/>
      <point x="222" y="216" type="curve" smooth="yes"/>
      <point x="195" y="216"/>
      <point x="160" y="218"/>
      <point x="104" y="245" type="curve"/>
      <point x="104" y="180" type="line"/>
      <point x="148" y="157"/>
      <point x="190" y="140"/>
      <point x="252" y="140" type="curve" smooth="yes"/>
      <point x="328" y="140"/>
      <point x="401" y="176"/>
      <point x="401" y="250" type="curve" smooth="yes"/>
      <point x="401" y="321"/>
      <point x="331" y="367"/>
      <point x="232" y="367" type="curve"/>
      <point x="121" y="367"/>
      <point x="20" y="288"/>
      <point x="20" y="172" type="curve" smooth="yes"/>
      <point x="20" y="55"/>
      <point x="123" y="-11"/>
      <point x="229" y="-11" type="curve" smooth="yes"/>
    </contour>
    <contour>
      <point x="413" y="56" type="move" name="ogonek"/>
    </contour>
    <contour>
      <point x="229" y="-11" type="move" name="bottom"/>
    </contour>
    <contour>
      <point x="232" y="367" type="move" name="top"/>
    </contour>
  </outline>
</glyph>
<glyph name="g" format="1">
  <advance width="431"/>
  <unicode hex="0067"/>
  <outline>
    <contour>
      <point x="315" y="-162"/>
      <point x="424" y="-110"/>
      <point x="424" y="-26" type="curve" smooth="yes"/>
      <point x="424" y="43"/>
      <point x="373" y="78"/>
      <point x="302" y="78" type="curve" smooth="yes"/>
      <point x="238" y="78"/>
      <point x="207" y="76"/>
      <point x="157" y="76" type="curve" smooth="yes"/>
      <point x="138" y="76"/>
      <point x="117" y="80"/>
      <point x="117" y="103" type="curve" smooth="yes"/>
      <point x="117" y="121"/>
      <point x="136" y="141"/>
      <point x="155" y="151" type="curve"/>
      <point x="115" y="182" type="line"/>
      <point x="68" y="167"/>
      <point x="18" y="131"/>
      <point x="18" y="76" type="curve" smooth="yes"/>
      <point x="18" y="18"/>
      <point x="77" y="-14"/>
      <point x="133" y="-14" type="curve" smooth="yes"/>
      <point x="199" y="-14"/>
      <point x="241" y="-10"/>
      <point x="277" y="-10" type="curve" smooth="yes"/>
      <point x="306" y="-10"/>
      <point x="320" y="-15"/>
      <point x="320" y="-33" type="curve" smooth="yes"/>
      <point x="320" y="-55"/>
      <point x="259" y="-70"/>
      <point x="195" y="-70" type="curve" smooth="yes"/>
      <point x="131" y="-70"/>
      <point x="103" y="-58"/>
      <point x="103" y="-34" type="curve" smooth="yes"/>
      <point x="103" y="-12"/>
      <point x="118" y="9"/>
      <point x="128" y="15" type="curve"/>
      <point x="82" y="39" type="line"/>
      <point x="49" y="20"/>
      <point x="5" y="-13"/>
      <point x="5" y="-59" type="curve" smooth="yes"/>
      <point x="5" y="-128"/>
      <point x="81" y="-162"/>
      <point x="179" y="-162" type="curve" smooth="yes"/>
    </contour>
    <contour>
      <point x="290" y="108"/>
      <point x="388" y="151"/>
      <point x="388" y="238" type="curve" smooth="yes"/>
      <point x="388" y="324"/>
      <point x="299" y="367"/>
      <point x="215" y="367" type="curve" smooth="yes"/>
      <point x="138" y="367"/>
      <point x="43" y="323"/>
      <point x="43" y="237" type="curve" smooth="yes"/>
      <point x="43" y="151"/>
      <point x="132" y="108"/>
      <point x="215" y="108" type="curve" smooth="yes"/>
    </contour>
    <contour>
      <point x="176" y="187"/>
      <point x="155" y="209"/>
      <point x="155" y="237" type="curve" smooth="yes"/>
      <point x="155" y="264"/>
      <point x="176" y="288"/>
      <point x="216" y="288" type="curve" smooth="yes"/>
      <point x="255" y="288"/>
      <point x="276" y="266"/>
      <point x="276" y="238" type="curve" smooth="yes"/>
      <point x="276" y="211"/>
      <point x="253" y="187"/>
      <point x="216" y="187" type="curve" smooth="yes"/>
    </contour>
    <contour>
      <point x="347" y="334"/>
      <point x="378" y="339"/>
      <point x="417" y="339" type="curve"/>
      <point x="417" y="432" type="line"/>
      <point x="355" y="432"/>
      <point x="301" y="405"/>
      <point x="288" y="335" type="curve"/>
      <point x="325" y="308" type="line"/>
    </contour>
    <contour>
      <point x="215" y="367" type="move" name="top"/>
    </contour>
    <contour>
      <point x="226" y="-161" type="move" name="bottom"/>
    </contour>
  </outline>
</glyph>
<glyph name="j" format="1">
  <advance width="272"/>
  <unicode hex="006A"/>
  <outline>
    <contour>
      <point x="136" y="-180"/>
      <point x="209" y="-118"/>
      <point x="209" y="3" type="curve" smooth="yes"/>
      <point x="209" y="357" type="line"/>
      <point x="96" y="357" type="line"/>
      <point x="96" y="1" type="line" smooth="yes"/>
      <point x="96" y="-51"/>
      <point x="72" y="-79"/>
      <point x="35" y="-79" type="curve" smooth="yes"/>
      <point x="11" y="-79"/>
      <point x="-4" y="-74"/>
      <point x="-32" y="-65" type="curve"/>
      <point x="-60" y="-160" type="line"/>
      <point x="-33" y="-168"/>
      <point x="-10" y="-180"/>
      <point x="40" y="-180" type="curve" smooth="yes"/>
    </contour>
    <contour>
      <point x="179" y="267" type="line"/>
      <point x="179" y="357" type="line"/>
      <point x="25" y="357" type="line"/>
      <point x="25" y="267" type="line"/>
    </contour>
    <contour>
      <point x="191" y="412"/>
      <point x="222" y="437"/>
      <point x="222" y="470" type="curve"/>
      <point x="222" y="505"/>
      <point x="191" y="530"/>
      <point x="147" y="530" type="curve"/>
      <point x="106" y="530"/>
      <point x="73" y="505"/>
      <point x="73" y="470" type="curve"/>
      <point x="73" y="437"/>
      <point x="106" y="412"/>
      <point x="147" y="412" type="curve"/>
    </contour>
    <contour>
      <point x="146" y="357" type="move" name="top"/>
    </contour>
    <contour>
      <point x="146" y="0" type="move" name="bottom"/>
    </contour>
  </outline>
</glyph>
<glyph name="l" format="1">
  <advance width="268"/>
  <unicode hex="006C"/>
  <outline>
    <contour>
      <point x="194" y="30" type="line"/>
      <point x="194" y="520" type="line"/>
      <point x="79" y="520" type="line"/>
      <point x="79" y="30" type="line"/>
    </contour>
    <contour>
      <point x="266" y="0" type="line"/>
      <point x="266" y="90" type="line"/>
      <point x="8" y="90" type="line"/>
      <point x="8" y="0" type="line"/>
    </contour>
    <contour>
      <point x="186" y="430" type="line"/>
      <point x="186" y="520" type="line"/>
      <point x="8" y="520" type="line"/>
      <point x="8" y="430" type="line"/>
    </contour>
    <contour>
      <point x="137" y="0" type="move" name="bottom"/>
    </contour>
    <contour>
      <point x="137" y="511" type="move" name="top"/>
    </contour>
    <contour>
      <point x="306" y="357" type="move" name="topright"/>
    </contour>
    <contour>
      <point x="137" y="283" type="move" name="center"/>
    </contour>
  </outline>
</glyph>
<glyph name="m" format="1">
  <advance width="817"/>
  <unicode hex="006D"/>
  <outline>
    <contour>
      <point x="168" y="267" type="line"/>
      <point x="168" y="357" type="line"/>
      <point x="20" y="357" type="line"/>
      <point x="20" y="267" type="line"/>
    </contour>
    <contour>
      <point x="206" y="30" type="line"/>
      <point x="206" y="357" type="line"/>
      <point x="91" y="357" type="line"/>
      <point x="91" y="30" type="line"/>
    </contour>
    <contour>
      <point x="263" y="0" type="line"/>
      <point x="263" y="90" type="line"/>
      <point x="20" y="90" type="line"/>
      <point x="20" y="0" type="line"/>
    </contour>
    <contour>
      <point x="479" y="30" type="line"/>
      <point x="479" y="194" type="line" smooth="yes"/>
      <point x="479" y="306"/>
      <point x="430" y="366"/>
      <point x="350" y="366" type="curve" smooth="yes"/>
      <point x="277" y="366"/>
      <point x="211" y="315"/>
      <point x="166" y="227" type="curve"/>
      <point x="166" y="137" type="line"/>
      <point x="211" y="217"/>
      <point x="260" y="258"/>
      <point x="307" y="258" type="curve" smooth="yes"/>
      <point x="345" y="258"/>
      <point x="363" y="228"/>
      <point x="363" y="194" type="curve" smooth="yes"/>
      <point x="363" y="30" type="line"/>
    </contour>
    <contour>
      <point x="536" y="0" type="line"/>
      <point x="536" y="90" type="line"/>
      <point x="307" y="90" type="line"/>
      <point x="307" y="0" type="line"/>
    </contour>
    <contour>
      <point x="751" y="30" type="line"/>
      <point x="751" y="194" type="line" smooth="yes"/>
      <point x="751" y="306"/>
      <point x="702" y="366"/>
      <point x="622" y="366" type="curve" smooth="yes"/>
      <point x="549" y="366"/>
      <point x="483" y="315"/>
      <point x="438" y="227" type="curve"/>
      <point x="438" y="137" type="line"/>
      <point x="483" y="217"/>
      <point x="532" y="258"/>
      <point x="579" y="258" type="curve" smooth="yes"/>
      <point x="617" y="258"/>
      <point x="635" y="228"/>
      <point x="635" y="194" type="curve" smooth="yes"/>
      <point x="635" y="30" type="line"/>
    </contour>
    <contour>
      <point x="812" y="0" type="line"/>
      <point x="812" y="90" type="line"/>
      <point x="579" y="90" type="line"/>
      <point x="579" y="0" type="line"/>
    </contour>
    <contour>
      <point x="481" y="363" type="move" name="top"/>
    </contour>
    <contour>
      <point x="481" y="0" type="move" name="bottom"/>
    </contour>
  </outline>
</glyph>
<glyph name="r" format="1">
  <advance width="429"/>
  <unicode hex="0072"/>
  <outline>
    <contour>
      <point x="215" y="210"/>
      <point x="273" y="252"/>
      <point x="300" y="251" type="curve"/>
      <point x="300" y="199" type="line"/>
      <point x="399" y="199" type="line"/>
      <point x="399" y="366" type="line"/>
      <point x="356" y="366" type="line" smooth="yes"/>
      <point x="294" y="366"/>
      <point x="216" y="304"/>
      <point x="163" y="223" type="curve"/>
      <point x="163" y="137" type="line"/>
    </contour>
    <contour>
      <point x="278" y="0" type="line"/>
      <point x="278" y="90" type="line"/>
      <point x="20" y="90" type="line"/>
      <point x="20" y="0" type="line"/>
    </contour>
    <contour>
      <point x="206" y="30" type="line"/>
      <point x="206" y="357" type="line"/>
      <point x="91" y="357" type="line"/>
      <point x="91" y="30" type="line"/>
    </contour>
    <contour>
      <point x="198" y="267" type="line"/>
      <point x="198" y="357" type="line"/>
      <point x="20" y="357" type="line"/>
      <point x="20" y="267" type="line"/>
    </contour>
    <contour>
      <point x="266" y="357" type="move" name="top"/>
    </contour>
    <contour>
      <point x="266" y="0" type="move" name="bottom"/>
    </contour>
  </outline>
</glyph>
<glyph name="s" format="1">
  <advance width="388"/>
  <unicode hex="0073"/>
  <outline>
    <contour>
      <point x="314" y="-11"/>
      <point x="366" y="35"/>
      <point x="366" y="101" type="curve" smooth="yes"/>
      <point x="366" y="162"/>
      <point x="322" y="203"/>
      <point x="227" y="230" type="curve" smooth="yes"/>
      <point x="154" y="250"/>
      <point x="142" y="256"/>
      <point x="142" y="269" type="curve" smooth="yes"/>
      <point x="142" y="282"/>
      <point x="150" y="294"/>
      <point x="186" y="294" type="curve" smooth="yes"/>
      <point x="229" y="294"/>
      <point x="266" y="275"/>
      <point x="293" y="234" type="curve"/>
      <point x="343" y="238" type="line"/>
      <point x="343" y="357" type="line"/>
      <point x="258" y="357" type="line"/>
      <point x="258" y="273" type="line"/>
      <point x="298" y="277" type="line"/>
      <point x="262" y="341"/>
      <point x="228" y="367"/>
      <point x="156" y="367" type="curve" smooth="yes"/>
      <point x="77" y="367"/>
      <point x="22" y="317"/>
      <point x="22" y="250" type="curve" smooth="yes"/>
      <point x="22" y="195"/>
      <point x="57" y="151"/>
      <point x="156" y="128" type="curve" smooth="yes"/>
      <point x="234" y="109"/>
      <point x="246" y="97"/>
      <point x="246" y="85" type="curve" smooth="yes"/>
      <point x="246" y="71"/>
      <point x="236" y="62"/>
      <point x="202" y="62" type="curve" smooth="yes"/>
      <point x="163" y="62"/>
      <point x="101" y="85"/>
      <point x="74" y="121" type="curve"/>
      <point x="24" y="118" type="line"/>
      <point x="24" y="-1" type="line"/>
      <point x="110" y="-1" type="line"/>
      <point x="110" y="82" type="line"/>
      <point x="69" y="79" type="line"/>
      <point x="106" y="14"/>
      <point x="154" y="-11"/>
      <point x="219" y="-11" type="curve" smooth="yes"/>
    </contour>
    <contour>
      <point x="186" y="363" type="move" name="top"/>
    </contour>
    <contour>
      <point x="250" y="-11" type="move" name="bottom"/>
    </contour>
  </outline>
</glyph>
<glyph name="y" format="1">
  <advance width="515"/>
  <unicode hex="0079"/>
  <outline>
    <contour>
      <point x="208" y="-180"/>
      <point x="263" y="-130"/>
      <point x="317" y="-20" type="curve" smooth="yes"/>
      <point x="496" y="344" type="line"/>
      <point x="391" y="344" type="line"/>
      <point x="229" y="3" type="line" smooth="yes"/>
      <point x="200" y="-58"/>
      <point x="171" y="-79"/>
      <point x="128" y="-79" type="curve" smooth="yes"/>
      <point x="101" y="-79"/>
      <point x="77" y="-67"/>
      <point x="59" y="-56" type="curve"/>
      <point x="15" y="-143" type="line"/>
      <point x="51" y="-165"/>
      <point x="82" y="-180"/>
      <point x="128" y="-180" type="curve" smooth="yes"/>
    </contour>
    <contour>
      <point x="317" y="35" type="line"/>
      <point x="181" y="305" type="line"/>
      <point x="48" y="305" type="line"/>
      <point x="233" y="-20" type="line"/>
    </contour>
    <contour>
      <point x="103" y="267" type="line"/>
      <point x="103" y="277" type="line"/>
      <point x="243" y="277" type="line"/>
      <point x="243" y="357" type="line"/>
      <point x="26" y="357" type="line"/>
      <point x="26" y="267" type="line"/>
    </contour>
    <contour>
      <point x="425" y="277" type="line"/>
      <point x="425" y="267" type="line"/>
      <point x="500" y="267" type="line"/>
      <point x="500" y="357" type="line"/>
      <point x="317" y="357" type="line"/>
      <point x="317" y="277" type="line"/>
    </contour>
    <contour>
      <point x="281" y="357" type="move" name="top"/>
    </contour>
    <contour>
      <point x="273" y="0" type="move" name="bottom"/>
    </contour>
  </outline>
</glyph>
<glyph name="braceright" format="1">
  <advance width="372"/>
  <unicode hex="007D"/>
  <outline>
    <contour>
      <point x="225" y="-155"/>
      <point x="296" y="-106"/>
      <point x="296" y="-23" type="curve" smooth="yes"/>
      <point x="296" y="67"/>
      <point x="188" y="113"/>
      <point x="188" y="159" type="curve" smooth="yes"/>
      <point x="188" y="201"/>
      <point x="224" y="213"/>
      <point x="284" y="213" type="curve" smooth="yes"/>
      <point x="327" y="213" type="line"/>
      <point x="327" y="297" type="line"/>
      <point x="284" y="297" type="line" smooth="yes"/>
      <point x="224" y="295"/>
      <point x="188" y="309"/>
      <point x="188" y="351" type="curve" smooth="yes"/>
      <point x="188" y="399"/>
      <point x="296" y="442"/>
      <point x="296" y="533" type="curve" smooth="yes"/>
      <point x="296" y="616"/>
      <point x="225" y="665"/>
      <point x="139" y="665" type="curve" smooth="yes"/>
      <point x="74" y="665"/>
      <point x="38" y="651"/>
      <point x="0" y="636" type="curve"/>
      <point x="32" y="547" type="line"/>
      <point x="63" y="560"/>
      <point x="90" y="568"/>
      <point x="122" y="568" type="curve" smooth="yes"/>
      <point x="155" y="568"/>
      <point x="185" y="558"/>
      <point x="185" y="526" type="curve" smooth="yes"/>
      <point x="185" y="481"/>
      <point x="85" y="451"/>
      <point x="85" y="362" type="curve" smooth="yes"/>
      <point x="85" y="286"/>
      <point x="155" y="250"/>
      <point x="245" y="250" type="curve"/>
      <point x="245" y="260" type="line"/>
      <point x="155" y="260"/>
      <point x="85" y="224"/>
      <point x="85" y="148" type="curve" smooth="yes"/>
      <point x="85" y="59"/>
      <point x="185" y="29"/>
      <point x="185" y="-16" type="curve" smooth="yes"/>
      <point x="185" y="-48"/>
      <point x="155" y="-58"/>
      <point x="122" y="-58" type="curve" smooth="yes"/>
      <point x="90" y="-58"/>
      <point x="63" y="-49"/>
      <point x="32" y="-37" type="curve"/>
      <point x="0" y="-126" type="line"/>
      <point x="38" y="-141"/>
      <point x="74" y="-155"/>
      <point x="139" y="-155" type="curve" smooth="yes"/>
    </contour>
  </outline>
</glyph>
<glyph name="sterling" format="1">
  <advance width="519"/>
  <unicode hex="00A3"/>
  <outline>
    <contour>
      <point x="82" y="-10" type="line" smooth="yes"/>
      <point x="204" y="-10"/>
      <point x="272" y="49"/>
      <point x="272" y="126" type="curve" smooth="yes"/>
      <point x="272" y="194"/>
      <point x="198" y="267"/>
      <point x="198" y="327" type="curve" smooth="yes"/>
      <point x="198" y="370"/>
      <point x="235" y="390"/>
      <point x="276" y="390" type="curve" smooth="yes"/>
      <point x="313" y="390"/>
      <point x="377" y="375"/>
      <point x="421" y="313" type="curve"/>
      <point x="481" y="318" type="line"/>
      <point x="481" y="470" type="line"/>
      <point x="384" y="470" type="line"/>
      <point x="384" y="363" type="line"/>
      <point x="459" y="361" type="line"/>
      <point x="405" y="442"/>
      <point x="336" y="480"/>
      <point x="251" y="480" type="curve" smooth="yes"/>
      <point x="157" y="480"/>
      <point x="86" y="421"/>
      <point x="86" y="327" type="curve" smooth="yes"/>
      <point x="86" y="256"/>
      <point x="153" y="195"/>
      <point x="153" y="133" type="curve" smooth="yes"/>
      <point x="153" y="89"/>
      <point x="99" y="85"/>
      <point x="82" y="85" type="curve" smooth="yes"/>
      <point x="51" y="85" type="line"/>
      <point x="51" y="-10" type="line"/>
    </contour>
    <contour>
      <point x="386" y="140" type="line"/>
      <point x="386" y="204" type="line"/>
      <point x="53" y="204" type="line"/>
      <point x="53" y="140" type="line"/>
    </contour>
    <contour>
      <point x="439" y="-10"/>
      <point x="498" y="41"/>
      <point x="513" y="123" type="curve"/>
      <point x="429" y="152" type="line"/>
      <point x="420" y="121"/>
      <point x="406" y="86"/>
      <point x="359" y="86" type="curve" smooth="yes"/>
      <point x="306" y="86"/>
      <point x="235" y="138"/>
      <point x="202" y="183" type="curve"/>
      <point x="192" y="90" type="line"/>
      <point x="226" y="44"/>
      <point x="296" y="-10"/>
      <point x="358" y="-10" type="curve" smooth="yes"/>
    </contour>
    <contour>
      <point x="386" y="225" type="line"/>
      <point x="386" y="290" type="line"/>
      <point x="53" y="290" type="line"/>
      <point x="53" y="225" type="line"/>
    </contour>
  </outline>
</glyph>
<glyph name="ordfeminine" format="1">
  <advance width="313"/>
  <unicode hex="00AA"/>
  <outline>
    <contour>
      <point x="273" y="311"/>
      <point x="299" y="331"/>
      <point x="299" y="368" type="curve" smooth="yes"/>
      <point x="299" y="399" type="line"/>
      <point x="267" y="399" type="line"/>
      <point x="267" y="368" type="line" smooth="yes"/>
      <point x="267" y="361"/>
      <point x="265" y="353"/>
      <point x="258" y="353" type="curve" smooth="yes"/>
      <point x="250" y="353"/>
      <point x="248" y="361"/>
      <point x="248" y="367" type="curve" smooth="yes"/>
      <point x="248" y="440" type="line"/>
      <point x="248" y="494"/>
      <point x="214" y="528"/>
      <point x="148" y="528" type="curve" smooth="yes"/>
      <point x="109" y="528"/>
      <point x="80" y="518"/>
      <point x="41" y="501" type="curve"/>
      <point x="56" y="452" type="line"/>
      <point x="86" y="465"/>
      <point x="112" y="473"/>
      <point x="139" y="473" type="curve" smooth="yes"/>
      <point x="162" y="473"/>
      <point x="184" y="465"/>
      <point x="184" y="442" type="curve"/>
      <point x="184" y="367" type="line" smooth="yes"/>
      <point x="184" y="334"/>
      <point x="204" y="311"/>
      <point x="243" y="311" type="curve" smooth="yes"/>
    </contour>
    <contour>
      <point x="139" y="308"/>
      <point x="169" y="325"/>
      <point x="196" y="348" type="curve"/>
      <point x="197" y="391" type="line"/>
      <point x="169" y="371"/>
      <point x="145" y="361"/>
      <point x="126" y="361" type="curve" smooth="yes"/>
      <point x="110" y="361"/>
      <point x="103" y="368"/>
      <point x="103" y="376" type="curve" smooth="yes"/>
      <point x="103" y="390"/>
      <point x="119" y="395"/>
      <point x="134" y="395" type="curve" smooth="yes"/>
      <point x="152" y="395"/>
      <point x="171" y="393"/>
      <point x="197" y="388" type="curve"/>
      <point x="197" y="429" type="line"/>
      <point x="171" y="436"/>
      <point x="144" y="441"/>
      <point x="116" y="441" type="curve" smooth="yes"/>
      <point x="73" y="441"/>
      <point x="30" y="417"/>
      <point x="30" y="373" type="curve" smooth="yes"/>
      <point x="30" y="330"/>
      <point x="66" y="308"/>
      <point x="106" y="308" type="curve" smooth="yes"/>
    </contour>
    <contour>
      <point x="39" y="212" type="line"/>
      <point x="288" y="212" type="line"/>
      <point x="288" y="260" type="line"/>
      <point x="39" y="260" type="line"/>
    </contour>
  </outline>
</glyph>
<glyph name="registered" format="1">
  <advance width="774"/>
  <unicode hex="00AE"/>
  <outline>
    <contour>
      <point x="596" y="-165"/>
      <point x="746" y="-19"/>
      <point x="746" y="177" type="curve"/>
      <point x="746" y="373"/>
      <point x="596" y="519"/>
      <point x="387" y="519" type="curve"/>
      <point x="179" y="519"/>
      <point x="28" y="373"/>
      <point x="28" y="177" type="curve"/>
      <point x="28" y="-19"/>
      <point x="179" y="-165"/>
      <point x="387" y="-165" type="curve"/>
    </contour>
    <contour>
      <point x="394" y="12" type="line"/>
      <point x="394" y="72" type="line"/>
      <point x="213" y="72" type="line"/>
      <point x="213" y="12" type="line"/>
    </contour>
    <contour>
      <point x="342" y="46" type="line"/>
      <point x="342" y="299" type="line"/>
      <point x="263" y="299" type="line"/>
      <point x="263" y="46" type="line"/>
    </contour>
    <contour>
      <point x="564" y="6"/>
      <point x="597" y="45"/>
      <point x="597" y="95" type="curve" smooth="yes"/>
      <point x="597" y="112" type="line"/>
      <point x="523" y="112" type="line"/>
      <point x="523" y="95" type="line" smooth="yes"/>
      <point x="523" y="85"/>
      <point x="518" y="77"/>
      <point x="507" y="77" type="curve" smooth="yes"/>
      <point x="494" y="77"/>
      <point x="490" y="88"/>
      <point x="480" y="108" type="curve" smooth="yes"/>
      <point x="470" y="128"/>
      <point x="459" y="154"/>
      <point x="418" y="154" type="curve" smooth="yes"/>
      <point x="355" y="154" type="line"/>
      <point x="355" y="143" type="line"/>
      <point x="367" y="143" type="line" smooth="yes"/>
      <point x="386" y="143"/>
      <point x="395" y="123"/>
      <point x="408" y="92" type="curve" smooth="yes"/>
      <point x="425" y="52"/>
      <point x="451" y="6"/>
      <point x="511" y="6" type="curve" smooth="yes"/>
    </contour>
    <contour>
      <point x="214" y="-108"/>
      <point x="94" y="15"/>
      <point x="95" y="177" type="curve"/>
      <point x="94" y="339"/>
      <point x="214" y="462"/>
      <point x="387" y="462" type="curve"/>
      <point x="560" y="462"/>
      <point x="679" y="339"/>
      <point x="678" y="177" type="curve"/>
      <point x="679" y="15"/>
      <point x="560" y="-108"/>
      <point x="387" y="-108" type="curve"/>
    </contour>
    <contour>
      <point x="419" y="142" type="line" smooth="yes"/>
      <point x="501" y="142"/>
      <point x="541" y="192"/>
      <point x="541" y="239" type="curve" smooth="yes"/>
      <point x="541" y="294"/>
      <point x="500" y="332"/>
      <point x="419" y="332" type="curve" smooth="yes"/>
      <point x="213" y="332" type="line"/>
      <point x="213" y="269" type="line"/>
      <point x="419" y="269" type="line" smooth="yes"/>
      <point x="438" y="269"/>
      <point x="459" y="261"/>
      <point x="459" y="239" type="curve" smooth="yes"/>
      <point x="459" y="213"/>
      <point x="436" y="204"/>
      <point x="419" y="204" type="curve" smooth="yes"/>
      <point x="315" y="204" type="line"/>
      <point x="315" y="142" type="line"/>
    </contour>
  </outline>
</glyph>
<glyph name="paragraph" format="1">
  <advance width="644"/>
  <unicode hex="00B6"/>
  <outline>
    <contour>
      <point x="467" y="-193"/>
      <point x="579" y="-138"/>
      <point x="579" y="9" type="curve" smooth="yes"/>
      <point x="579" y="520" type="line"/>
      <point x="476" y="520" type="line"/>
      <point x="476" y="10" type="line" smooth="yes"/>
      <point x="476" y="-69"/>
      <point x="408" y="-92"/>
      <point x="366" y="-92" type="curve" smooth="yes"/>
      <point x="307" y="-92"/>
      <point x="234" y="-66"/>
      <point x="185" y="-40" type="curve"/>
      <point x="146" y="-133" type="line"/>
      <point x="206" y="-160"/>
      <point x="290" y="-193"/>
      <point x="377" y="-193" type="curve" smooth="yes"/>
    </contour>
    <contour>
      <point x="397" y="-154" type="line"/>
      <point x="397" y="430" type="line"/>
      <point x="294" y="513" type="line"/>
      <point x="294" y="-154" type="line"/>
    </contour>
    <contour>
      <point x="284" y="152"/>
      <point x="333" y="177"/>
      <point x="376" y="208" type="curve"/>
      <point x="376" y="297" type="line"/>
      <point x="334" y="266"/>
      <point x="306" y="249"/>
      <point x="244" y="249" type="curve" smooth="yes"/>
      <point x="191" y="250"/>
      <point x="139" y="278"/>
      <point x="139" y="340" type="curve" smooth="yes"/>
      <point x="139" y="397"/>
      <point x="192" y="435"/>
      <point x="242" y="435" type="curve" smooth="yes"/>
      <point x="363" y="435"/>
      <point x="481" y="352"/>
      <point x="537" y="290" type="curve"/>
      <point x="537" y="403" type="line"/>
      <point x="481" y="465"/>
      <point x="358" y="530"/>
      <point x="236" y="530" type="curve" smooth="yes"/>
      <point x="106" y="530"/>
      <point x="11" y="451"/>
      <point x="11" y="340" type="curve" smooth="yes"/>
      <point x="11" y="225"/>
      <point x="113" y="152"/>
      <point x="225" y="152" type="curve" smooth="yes"/>
    </contour>
  </outline>
</glyph>
<glyph name="Thorn" format="1">
  <advance width="536"/>
  <unicode hex="00DE"/>
  <outline>
    <contour>
      <point x="358" y="133" type="line" smooth="yes"/>
      <point x="457" y="134"/>
      <point x="531" y="174"/>
      <point x="531" y="259" type="curve" smooth="yes"/>
      <point x="531" y="346"/>
      <point x="457" y="384"/>
      <point x="358" y="384" type="curve" smooth="yes"/>
      <point x="185" y="384" type="line"/>
      <point x="185" y="300" type="line"/>
      <point x="339" y="300" type="line" smooth="yes"/>
      <point x="374" y="300"/>
      <point x="409" y="295"/>
      <point x="409" y="259" type="curve" smooth="yes"/>
      <point x="409" y="218"/>
      <point x="370" y="215"/>
      <point x="339" y="215" type="curve" smooth="yes"/>
      <point x="184" y="215" type="line"/>
      <point x="184" y="132" type="line"/>
    </contour>
    <contour>
      <point x="308" y="0" type="line"/>
      <point x="308" y="86" type="line"/>
      <point x="206" y="86" type="line"/>
      <point x="206" y="96" type="line"/>
      <point x="25" y="96" type="line"/>
      <point x="25" y="0" type="line"/>
    </contour>
    <contour>
      <point x="220" y="53" type="line"/>
      <point x="220" y="468" type="line"/>
      <point x="105" y="468" type="line"/>
      <point x="105" y="53" type="line"/>
    </contour>
    <contour>
      <point x="198" y="424" type="line"/>
      <point x="198" y="434" type="line"/>
      <point x="308" y="434" type="line"/>
      <point x="308" y="520" type="line"/>
      <point x="25" y="520" type="line"/>
      <point x="25" y="424" type="line"/>
    </contour>
  </outline>
</glyph>
<glyph name="germandbls" format="1">
  <advance width="578"/>
  <unicode hex="00DF"/>
  <outline>
    <contour>
      <point x="529" y="-11"/>
      <point x="581" y="35"/>
      <point x="581" y="104" type="curve" smooth="yes"/>
      <point x="581" y="165"/>
      <point x="534" y="199"/>
      <point x="452" y="222" type="curve" smooth="yes"/>
      <point x="380" y="243"/>
      <point x="367" y="243"/>
      <point x="367" y="257" type="curve" smooth="yes"/>
      <point x="367" y="269"/>
      <point x="375" y="276"/>
      <point x="421" y="301" type="curve" smooth="yes"/>
      <point x="475" y="330"/>
      <point x="519" y="358"/>
      <point x="519" y="416" type="curve" smooth="yes"/>
      <point x="519" y="495"/>
      <point x="425" y="555"/>
      <point x="298" y="555" type="curve" smooth="yes"/>
      <point x="166" y="555"/>
      <point x="91" y="497"/>
      <point x="91" y="380" type="curve" smooth="yes"/>
      <point x="91" y="0" type="line"/>
      <point x="204" y="0" type="line"/>
      <point x="204" y="382" type="line" smooth="yes"/>
      <point x="204" y="430"/>
      <point x="236" y="459"/>
      <point x="299" y="459" type="curve" smooth="yes"/>
      <point x="358" y="459"/>
      <point x="399" y="441"/>
      <point x="399" y="411" type="curve" smooth="yes"/>
      <point x="399" y="389"/>
      <point x="376" y="379"/>
      <point x="333" y="354" type="curve" smooth="yes"/>
      <point x="278" y="325"/>
      <point x="247" y="297"/>
      <point x="247" y="241" type="curve" smooth="yes"/>
      <point x="247" y="182"/>
      <point x="290" y="150"/>
      <point x="381" y="121" type="curve" smooth="yes"/>
      <point x="447" y="101"/>
      <point x="461" y="99"/>
      <point x="461" y="85" type="curve" smooth="yes"/>
      <point x="461" y="71"/>
      <point x="449" y="62"/>
      <point x="422" y="62" type="curve" smooth="yes"/>
      <point x="388" y="62"/>
      <point x="326" y="85"/>
      <point x="299" y="121" type="curve"/>
      <point x="249" y="118" type="line"/>
      <point x="249" y="-1" type="line"/>
      <point x="335" y="-1" type="line"/>
      <point x="335" y="82" type="line"/>
      <point x="294" y="79" type="line"/>
      <point x="331" y="14"/>
      <point x="379" y="-11"/>
      <point x="439" y="-11" type="curve" smooth="yes"/>
    </contour>
    <contour>
      <point x="179" y="0" type="line"/>
      <point x="179" y="90" type="line"/>
      <point x="20" y="90" type="line"/>
      <point x="20" y="0" type="line"/>
    </contour>
    <contour>
      <point x="179" y="267" type="line"/>
      <point x="179" y="357" type="line"/>
      <point x="20" y="357" type="line"/>
      <point x="20" y="267" type="line"/>
    </contour>
  </outline>
</glyph>
<glyph name="Hbar" format="1">
  <advance width="719"/>
  <unicode hex="0126"/>
  <outline>
    <contour>
      <point x="669" y="313" type="line"/>
      <point x="669" y="387" type="line"/>
      <point x="49" y="387" type="line"/>
      <point x="49" y="313" type="line"/>
    </contour>
    <contour>
      <point x="317" y="0" type="line"/>
      <point x="317" y="96" type="line"/>
      <point x="25" y="96" type="line"/>
      <point x="25" y="0" type="line"/>
    </contour>
    <contour>
      <point x="232" y="53" type="line"/>
      <point x="232" y="464" type="line"/>
      <point x="110" y="464" type="line"/>
      <point x="110" y="53" type="line"/>
    </contour>
    <contour>
      <point x="694" y="0" type="line"/>
      <point x="694" y="96" type="line"/>
      <point x="401" y="96" type="line"/>
      <point x="401" y="0" type="line"/>
    </contour>
    <contour>
      <point x="571" y="189" type="line"/>
      <point x="571" y="276" type="line"/>
      <point x="148" y="276" type="line"/>
      <point x="148" y="189" type="line"/>
    </contour>
    <contour>
      <point x="317" y="424" type="line"/>
      <point x="317" y="520" type="line"/>
      <point x="25" y="520" type="line"/>
      <point x="25" y="424" type="line"/>
    </contour>
    <contour>
      <point x="609" y="56" type="line"/>
      <point x="609" y="467" type="line"/>
      <point x="486" y="467" type="line"/>
      <point x="486" y="56" type="line"/>
    </contour>
    <contour>
      <point x="694" y="424" type="line"/>
      <point x="694" y="520" type="line"/>
      <point x="401" y="520" type="line"/>
      <point x="401" y="424" type="line"/>
    </contour>
    <contour>
      <point x="356" y="255" type="move" name="center"/>
    </contour>
    <contour>
      <point x="356" y="0" type="move" name="bottom"/>
    </contour>
    <contour>
      <point x="356" y="520" type="move" name="top"/>
    </contour>
  </outline>
</glyph>
<glyph name="acutecomb" format="1">
  <advance width="355"/>
  <unicode hex="0301"/>
  <outline>
    <contour>
      <point x="240" y="750" type="line"/>
      <point x="298" y="667" type="line"/>
      <point x="88" y="565" type="line"/>
      <point x="58" y="608" type="line"/>
    </contour>
    <contour>
      <point x="181" y="520" type="move" name="_top"/>
    </contour>
  </outline>
</glyph>
<glyph name="uni0312" format="1">
  <advance width="219"/>
  <unicode hex="0312"/>
  <outline>
    <contour>
      <point x="43" y="624"/>
      <point x="74" y="597"/>
      <point x="112" y="597" type="curve" smooth="yes"/>
      <point x="147" y="597"/>
      <point x="176" y="618"/>
      <point x="176" y="647" type="curve" smooth="yes"/>
      <point x="176" y="674"/>
      <point x="153" y="692"/>
      <point x="123" y="692" type="curve" smooth="yes"/>
      <point x="113" y="692"/>
      <point x="103" y="692"/>
      <point x="96" y="687" type="curve"/>
      <point x="95" y="701"/>
      <point x="110" y="736"/>
      <point x="147" y="767" type="curve"/>
      <point x="122" y="793" type="line"/>
      <point x="79" y="760"/>
      <point x="43" y="714"/>
      <point x="43" y="672" type="curve" smooth="yes"/>
    </contour>
    <contour>
      <point x="111" y="521" type="move" name="_top"/>
    </contour>
  </outline>
</glyph>
<glyph name="uni0327" format="1">
  <advance width="239"/>
  <unicode hex="0327"/>
  <outline>
    <contour>
      <point x="188" y="-199"/>
      <point x="227" y="-165"/>
      <point x="227" y="-127" type="curve" smooth="yes"/>
      <point x="227" y="-90"/>
      <point x="204" y="-70"/>
      <point x="168" y="-56" type="curve" smooth="yes"/>
      <point x="131" y="-42"/>
      <point x="117" y="-37"/>
      <point x="117" y="-24" type="curve" smooth="yes"/>
      <point x="117" y="-13"/>
      <point x="124" y="-6"/>
      <point x="129" y="0" type="curve"/>
      <point x="85" y="12" type="line"/>
      <point x="66" y="3"/>
      <point x="45" y="-20"/>
      <point x="45" y="-46" type="curve" smooth="yes"/>
      <point x="45" y="-78"/>
      <point x="80" y="-95"/>
      <point x="115" y="-107" type="curve" smooth="yes"/>
      <point x="146" y="-118"/>
      <point x="155" y="-121"/>
      <point x="155" y="-128" type="curve" smooth="yes"/>
      <point x="155" y="-134"/>
      <point x="150" y="-139"/>
      <point x="134" y="-139" type="curve" smooth="yes"/>
      <point x="113" y="-139"/>
      <point x="79" y="-127"/>
      <point x="45" y="-105" type="curve"/>
      <point x="13" y="-156" type="line"/>
      <point x="38" y="-176"/>
      <point x="81" y="-199"/>
      <point x="131" y="-199" type="curve" smooth="yes"/>
    </contour>
    <contour>
      <point x="129" y="0" type="move" name="_bottom"/>
    </contour>
  </outline>
</glyph>
<glyph name="uni0411" format="1">
  <advance width="611"/>
  <unicode hex="0411"/>
  <outline>
    <contour>
      <point x="189" y="276" type="line"/>
      <point x="189" y="186" type="line"/>
      <point x="388" y="186" type="line" smooth="yes"/>
      <point x="435" y="187"/>
      <point x="464" y="172"/>
      <point x="464" y="142" type="curve" smooth="yes"/>
      <point x="464" y="112"/>
      <point x="429" y="96"/>
      <point x="380" y="96" type="curve" smooth="yes"/>
      <point x="25" y="96" type="line"/>
      <point x="25" y="0" type="line"/>
      <point x="379" y="0" type="line" smooth="yes"/>
      <point x="516" y="0"/>
      <point x="585" y="55"/>
      <point x="585" y="143" type="curve" smooth="yes"/>
      <point x="585" y="229"/>
      <point x="517" y="279"/>
      <point x="380" y="278" type="curve"/>
    </contour>
    <contour>
      <point x="454" y="424" type="line"/>
      <point x="454" y="327" type="line"/>
      <point x="562" y="327" type="line"/>
      <point x="562" y="520" type="line"/>
      <point x="25" y="520" type="line"/>
      <point x="25" y="424" type="line"/>
    </contour>
    <contour>
      <point x="231" y="53" type="line"/>
      <point x="231" y="464" type="line"/>
      <point x="108" y="464" type="line"/>
      <point x="108" y="53" type="line"/>
    </contour>
  </outline>
</glyph>
<glyph name="endash" format="1">
  <advance width="441"/>
  <unicode hex="2013"/>
  <outline>
    <contour>
      <point x="19" y="228" type="line"/>
      <point x="19" y="130" type="line"/>
      <point x="423" y="130" type="line"/>
      <point x="423" y="228" type="line"/>
    </contour>
  </outline>
</glyph>
<glyph name="ellipsis" format="1">
  <advance width="700"/>
  <unicode hex="2026"/>
  <outline>
    <contour>
      <point x="630" y="-10"/>
      <point x="663" y="17"/>
      <point x="663" y="54" type="curve"/>
      <point x="663" y="94"/>
      <point x="630" y="121"/>
      <point x="583" y="121" type="curve"/>
      <point x="539" y="121"/>
      <point x="503" y="94"/>
      <point x="503" y="54" type="curve"/>
      <point x="503" y="17"/>
      <point x="539" y="-10"/>
      <point x="583" y="-10" type="curve"/>
    </contour>
    <contour>
      <point x="164" y="-10"/>
      <point x="197" y="17"/>
      <point x="197" y="54" type="curve"/>
      <point x="197" y="94"/>
      <point x="164" y="121"/>
      <point x="117" y="121" type="curve"/>
      <point x="73" y="121"/>
      <point x="37" y="94"/>
      <point x="37" y="54" type="curve"/>
      <point x="37" y="17"/>
      <point x="73" y="-10"/>
      <point x="117" y="-10" type="curve"/>
    </contour>
    <contour>
      <point x="397" y="-10"/>
      <point x="430" y="17"/>
      <point x="430" y="54" type="curve"/>
      <point x="430" y="94"/>
      <point x="397" y="121"/>
      <point x="350" y="121" type="curve"/>
      <point x="306" y="121"/>
      <point x="270" y="94"/>
      <point x="270" y="54" type="curve"/>
      <point x="270" y="17"/>
      <point x="306" y="-10"/>
      <point x="350" y="-10" type="curve"/>
    </contour>
  </outline>
</glyph>
<glyph name="guilsinglleft" format="1">
  <advance width="450"/>
  <unicode hex="2039"/>
  <outline>
    <contour>
      <point x="298" y="181"/>
      <point x="384" y="245"/>
      <point x="418" y="355" type="curve"/>
      <point x="330" y="389" type="line"/>
      <point x="299" y="284"/>
      <point x="208" y="233"/>
      <point x="76" y="233" type="curve" smooth="yes"/>
      <point x="41" y="233" type="line"/>
      <point x="41" y="135" type="line"/>
      <point x="77" y="135" type="line" smooth="yes"/>
      <point x="210" y="135"/>
      <point x="300" y="84"/>
      <point x="331" y="-21" type="curve"/>
      <point x="420" y="12" type="line"/>
      <point x="385" y="123"/>
      <point x="299" y="187"/>
      <point x="101" y="187" type="curve"/>
      <point x="101" y="181" type="line"/>
    </contour>
  </outline>
</glyph>
<glyph name="fraction" format="1">
  <advance width="145"/>
  <unicode hex="2044"/>
  <outline>
    <contour>
      <point x="-99" y="-53" type="line"/>
      <point x="-25" y="-83" type="line"/>
      <point x="100" y="229" type="line"/>
      <point x="245" y="529" type="line"/>
      <point x="171" y="559" type="line"/>
      <point x="46" y="248" type="line"/>
    </contour>
  </outline>
</glyph>
<glyph name="A.alt" format="1">
  <advance width="681"/>
  <outline>
    <contour>
      <point x="309" y="530" type="line"/>
      <point x="34" y="13" type="line"/>
      <point x="164" y="13" type="line"/>
      <point x="367" y="436" type="line"/>
      <point x="309" y="436" type="line"/>
      <point x="512" y="13" type="line"/>
      <point x="648" y="13" type="line"/>
      <point x="374" y="530" type="line"/>
    </contour>
    <contour>
      <point x="681" y="0" type="line"/>
      <point x="681" y="96" type="line"/>
      <point x="410" y="96" type="line"/>
      <point x="410" y="0" type="line"/>
    </contour>
    <contour>
      <point x="271" y="0" type="line"/>
      <point x="271" y="96" type="line"/>
      <point x="0" y="96" type="line"/>
      <point x="0" y="0" type="line"/>
    </contour>
    <contour>
      <point x="450" y="248" type="line"/>
      <point x="228" y="248" type="line"/>
      <point x="211" y="161" type="line"/>
      <point x="467" y="161" type="line"/>
    </contour>
    <contour>
      <point x="424" y="595" type="move" name="hook"/>
    </contour>
    <contour>
      <point x="681" y="0" type="move" name="ogonek"/>
    </contour>
    <contour>
      <point x="340" y="530" type="move" name="top"/>
    </contour>
    <contour>
      <point x="341" y="0" type="move" name="bottom"/>
    </contour>
  </outline>
</glyph>
<glyph name="a.alt2" format="1">
  <advance width="483"/>
  <outline>
    <contour>
      <point x="292" y="-11"/>
      <point x="345" y="58"/>
      <point x="383" y="98" type="curve"/>
      <point x="383" y="181" type="line"/>
      <point x="341" y="139"/>
      <point x="286" y="87"/>
      <point x="232" y="86" type="curve" smooth="yes"/>
      <point x="173" y="85"/>
      <point x="140" y="125"/>
      <point x="140" y="177" type="curve" smooth="yes"/>
      <point x="140" y="232"/>
      <point x="178" y="272"/>
      <point x="241" y="272" type="curve" smooth="yes"/>
      <point x="294" y="272"/>
      <point x="349" y="225"/>
      <point x="381" y="182" type="curve"/>
      <point x="381" y="259" type="line"/>
      <point x="350" y="301"/>
      <point x="302" y="367"/>
      <point x="211" y="367" type="curve" smooth="yes"/>
      <point x="100" y="367"/>
      <point x="20" y="285"/>
      <point x="20" y="177" type="curve" smooth="yes"/>
      <point x="20" y="69"/>
      <point x="104" y="-11"/>
      <point x="198" y="-11" type="curve" smooth="yes"/>
    </contour>
    <contour>
      <point x="450" y="-5"/>
      <point x="472" y="4"/>
      <point x="491" y="12" type="curve"/>
      <point x="468" y="92" type="line"/>
      <point x="463" y="91"/>
      <point x="461" y="90"/>
      <point x="454" y="90" type="curve" smooth="yes"/>
      <point x="443" y="90"/>
      <point x="432" y="94"/>
      <point x="432" y="113" type="curve" smooth="yes"/>
      <point x="432" y="369" type="line"/>
      <point x="316" y="347" type="line"/>
      <point x="316" y="101" type="line" smooth="yes"/>
      <point x="316" y="35"/>
      <point x="361" y="-5"/>
      <point x="417" y="-5" type="curve" smooth="yes"/>
    </contour>
    <contour>
      <point x="491" y="12" type="move" name="ogonek"/>
    </contour>
    <contour>
      <point x="198" y="-12" type="move" name="bottom"/>
    </contour>
    <contour>
      <point x="195" y="367" type="move" name="top"/>
    </contour>
  </outline>
</glyph>
<glyph name="ampersand.001" format="1">
  <advance width="615"/>
  <outline>
    <contour>
      <point x="751" y="-189"/>
      <point x="815" y="-164"/>
      <point x="864" y="-134" type="curve"/>
      <point x="819" y="-35" type="line"/>
      <point x="774" y="-67"/>
      <point x="715" y="-80"/>
      <point x="665" y="-80" type="curve" smooth="yes"/>
      <point x="428" y="-80"/>
      <point x="314" y="177"/>
      <point x="314" y="359" type="curve" smooth="yes"/>
      <point x="314" y="411"/>
      <point x="333" y="437"/>
      <point x="358" y="437" type="curve" smooth="yes"/>
      <point x="376" y="437"/>
      <point x="387" y="425"/>
      <point x="387" y="405" type="curve" smooth="yes"/>
      <point x="387" y="372"/>
      <point x="344" y="332"/>
      <point x="245" y="314" type="curve" smooth="yes"/>
      <point x="95" y="288"/>
      <point x="20" y="232"/>
      <point x="20" y="143" type="curve" smooth="yes"/>
      <point x="20" y="47"/>
      <point x="116" y="-13"/>
      <point x="275" y="-12" type="curve" smooth="yes"/>
      <point x="495" y="-11"/>
      <point x="592" y="118"/>
      <point x="592" y="210" type="curve" smooth="yes"/>
      <point x="592" y="264"/>
      <point x="576" y="288"/>
      <point x="559" y="320" type="curve"/>
      <point x="459" y="277" type="line"/>
      <point x="471" y="257"/>
      <point x="479" y="238"/>
      <point x="479" y="212" type="curve" smooth="yes"/>
      <point x="479" y="131"/>
      <point x="385" y="82"/>
      <point x="274" y="82" type="curve" smooth="yes"/>
      <point x="192" y="82"/>
      <point x="140" y="107"/>
      <point x="140" y="152" type="curve" smooth="yes"/>
      <point x="140" y="191"/>
      <point x="180" y="214"/>
      <point x="275" y="230" type="curve" smooth="yes"/>
      <point x="411" y="253"/>
      <point x="500" y="327"/>
      <point x="500" y="408" type="curve" smooth="yes"/>
      <point x="500" y="475"/>
      <point x="447" y="528"/>
      <point x="356" y="528" type="curve" smooth="yes"/>
      <point x="258" y="528"/>
      <point x="191" y="452"/>
      <point x="191" y="358" type="curve" smooth="yes"/>
      <point x="189" y="128"/>
      <point x="345" y="-189"/>
      <point x="665" y="-189" type="curve" smooth="yes"/>
    </contour>
  </outline>
</glyph>
<glyph name="g.alt" format="1">
  <advance width="481"/>
  <outline>
    <contour>
      <point x="324" y="-180"/>
      <point x="431" y="-124"/>
      <point x="431" y="-8" type="curve" smooth="yes"/>
      <point x="431" y="372" type="line"/>
      <point x="316" y="350" type="line"/>
      <point x="316" y="-7" type="line" smooth="yes"/>
      <point x="316" y="-55"/>
      <point x="265" y="-79"/>
      <point x="223" y="-79" type="curve" smooth="yes"/>
      <point x="174" y="-79"/>
      <point x="130" y="-62"/>
      <point x="85" y="-36" type="curve"/>
      <point x="44" y="-128" type="line"/>
      <point x="101" y="-157"/>
      <point x="157" y="-180"/>
      <point x="235" y="-180" type="curve" smooth="yes"/>
    </contour>
    <contour>
      <point x="292" y="-11"/>
      <point x="345" y="58"/>
      <point x="383" y="98" type="curve"/>
      <point x="383" y="181" type="line"/>
      <point x="341" y="139"/>
      <point x="286" y="87"/>
      <point x="232" y="86" type="curve" smooth="yes"/>
      <point x="173" y="85"/>
      <point x="140" y="125"/>
      <point x="140" y="177" type="curve" smooth="yes"/>
      <point x="140" y="232"/>
      <point x="178" y="272"/>
      <point x="241" y="272" type="curve" smooth="yes"/>
      <point x="294" y="272"/>
      <point x="349" y="225"/>
      <point x="381" y="182" type="curve"/>
      <point x="381" y="259" type="line"/>
      <point x="350" y="301"/>
      <point x="302" y="367"/>
      <point x="211" y="367" type="curve" smooth="yes"/>
      <point x="100" y="367"/>
      <point x="20" y="285"/>
      <point x="20" y="177" type="curve" smooth="yes"/>
      <point x="20" y="69"/>
      <point x="104" y="-11"/>
      <point x="198" y="-11" type="curve" smooth="yes"/>
    </contour>
    <contour>
      <point x="234" y="365" type="move" name="top"/>
    </contour>
    <contour>
      <point x="235" y="-190" type="move" name="bottom"/>
    </contour>
  </outline>
</glyph>
<glyph name="k.alt" format="1">
  <advance width="516"/>
  <outline>
    <contour>
      <point x="476" y="289" type="line"/>
      <point x="346" y="287" type="line"/>
      <point x="166" y="185" type="line"/>
      <point x="173" y="110" type="line"/>
    </contour>
    <contour>
      <point x="257" y="0" type="line"/>
      <point x="257" y="90" type="line"/>
      <point x="8" y="90" type="line"/>
      <point x="8" y="0" type="line"/>
    </contour>
    <contour>
      <point x="194" y="30" type="line"/>
      <point x="194" y="520" type="line"/>
      <point x="79" y="520" type="line"/>
      <point x="79" y="30" type="line"/>
    </contour>
    <contour>
      <point x="506" y="0" type="line"/>
      <point x="506" y="90" type="line"/>
      <point x="288" y="90" type="line"/>
      <point x="288" y="0" type="line"/>
    </contour>
    <contour>
      <point x="489" y="76" type="line"/>
      <point x="297" y="241" type="line"/>
      <point x="221" y="186" type="line"/>
      <point x="352" y="76" type="line"/>
    </contour>
    <contour>
      <point x="186" y="430" type="line"/>
      <point x="186" y="520" type="line"/>
      <point x="8" y="520" type="line"/>
      <point x="8" y="430" type="line"/>
    </contour>
    <contour>
      <point x="489" y="271" type="line"/>
      <point x="489" y="357" type="line"/>
      <point x="269" y="357" type="line"/>
      <point x="269" y="271" type="line"/>
    </contour>
    <contour>
      <point x="272" y="367" type="move" name="top"/>
    </contour>
    <contour>
      <point x="272" y="0" type="move" name="bottom"/>
    </contour>
  </outline>
</glyph>
<glyph name="three.numr" format="1">
  <advance width="275"/>
  <outline>
    <contour>
      <point x="204" y="194"/>
      <point x="258" y="225"/>
      <point x="258" y="269" type="curve" smooth="yes"/>
      <point x="258" y="324"/>
      <point x="205" y="344"/>
      <point x="109" y="344" type="curve"/>
      <point x="109" y="324" type="line"/>
      <point x="180" y="323"/>
      <point x="247" y="352"/>
      <point x="247" y="401" type="curve" smooth="yes"/>
      <point x="247" y="451"/>
      <point x="200" y="480"/>
      <point x="136" y="480" type="curve" smooth="yes"/>
      <point x="85" y="480"/>
      <point x="37" y="454"/>
      <point x="11" y="427" type="curve"/>
      <point x="48" y="381" type="line"/>
      <point x="76" y="403"/>
      <point x="106" y="421"/>
      <point x="133" y="421" type="curve" smooth="yes"/>
      <point x="154" y="421"/>
      <point x="171" y="410"/>
      <point x="171" y="394" type="curve" smooth="yes"/>
      <point x="171" y="371"/>
      <point x="145" y="363"/>
      <point x="95" y="363" type="curve" smooth="yes"/>
      <point x="59" y="363" type="line"/>
      <point x="59" y="306" type="line"/>
      <point x="95" y="306" type="line" smooth="yes"/>
      <point x="157" y="306"/>
      <point x="182" y="299"/>
      <point x="182" y="278" type="curve" smooth="yes"/>
      <point x="182" y="260"/>
      <point x="160" y="253"/>
      <point x="135" y="253" type="curve" smooth="yes"/>
      <point x="102" y="253"/>
      <point x="65" y="267"/>
      <point x="39" y="283" type="curve"/>
      <point x="8" y="232" type="line"/>
      <point x="32" y="216"/>
      <point x="71" y="194"/>
      <point x="134" y="194" type="curve" smooth="yes"/>
    </contour>
  </outline>
</glyph>
<glyph name="u.alt" format="1">
  <advance width="524"/>
  <outline>
    <contour>
      <point x="263" y="-10"/>
      <point x="314" y="35"/>
      <point x="386" y="129" type="curve"/>
      <point x="386" y="219" type="line"/>
      <point x="331" y="139"/>
      <point x="283" y="97"/>
      <point x="240" y="97" type="curve" smooth="yes"/>
      <point x="190" y="97"/>
      <point x="177" y="128"/>
      <point x="177" y="168" type="curve" smooth="yes"/>
      <point x="177" y="356" type="line"/>
      <point x="62" y="356" type="line"/>
      <point x="62" y="168" type="line" smooth="yes"/>
      <point x="62" y="50"/>
      <point x="111" y="-10"/>
      <point x="197" y="-10" type="curve" smooth="yes"/>
    </contour>
    <contour>
      <point x="159" y="267" type="line"/>
      <point x="159" y="357" type="line"/>
      <point x="0" y="357" type="line"/>
      <point x="0" y="267" type="line"/>
    </contour>
    <contour>
      <point x="489" y="-11"/>
      <point x="532" y="22"/>
      <point x="532" y="85" type="curve" smooth="yes"/>
      <point x="532" y="138" type="line"/>
      <point x="475" y="138" type="line"/>
      <point x="475" y="84" type="line" smooth="yes"/>
      <point x="475" y="73"/>
      <point x="472" y="63"/>
      <point x="461" y="63" type="curve" smooth="yes"/>
      <point x="449" y="63"/>
      <point x="446" y="74"/>
      <point x="446" y="83" type="curve" smooth="yes"/>
      <point x="446" y="357" type="line"/>
      <point x="332" y="357" type="line"/>
      <point x="332" y="85" type="line" smooth="yes"/>
      <point x="332" y="27"/>
      <point x="369" y="-11"/>
      <point x="436" y="-11" type="curve" smooth="yes"/>
    </contour>
    <contour>
      <point x="433" y="267" type="line"/>
      <point x="433" y="357" type="line"/>
      <point x="276" y="357" type="line"/>
      <point x="276" y="267" type="line"/>
    </contour>
    <contour>
      <point x="471" y="-4" type="move" name="ogonek"/>
    </contour>
    <contour>
      <point x="247" y="357" type="move" name="top"/>
    </contour>
    <contour>
      <point x="482" y="357" type="move" name="topright"/>
    </contour>
    <contour>
      <point x="247" y="-20" type="move" name="bottom"/>
    </contour>
  </outline>
</glyph>
